<svg width="18" height="20" viewBox="0 0 18 20" fill="none" xmlns="http://www.w3.org/2000/svg">
<path fill-rule="evenodd" clip-rule="evenodd" d="M9.67098 5.66464C9.39459 5.11185 8.60574 5.11185 8.32934 5.66464L4.32934 13.6646C4.1441 14.0351 4.29427 14.4856 4.66475 14.6709C5.03524 14.8561 5.48574 14.7059 5.67098 14.3355L6.46801 12.7414L11.4852 12.6473L12.3293 14.3355C12.5146 14.7059 12.9651 14.8561 13.3356 14.6709C13.7061 14.4856 13.8562 14.0351 13.671 13.6646L9.67098 5.66464ZM10.7421 11.1609L7.22525 11.2269L9.00016 7.6771L10.7421 11.1609Z" fill="#86878B"/>
<path fill-rule="evenodd" clip-rule="evenodd" d="M3 0.75C1.75736 0.75 0.75 1.75736 0.75 3V17C0.75 18.2426 1.75736 19.25 3 19.25H15C16.2426 19.25 17.25 18.2426 17.25 17V3C17.25 1.75736 16.2426 0.75 15 0.75H3ZM2.25 3C2.25 2.58579 2.58579 2.25 3 2.25H15C15.4142 2.25 15.75 2.58579 15.75 3V17C15.75 17.4142 15.4142 17.75 15 17.75H3C2.58579 17.75 2.25 17.4142 2.25 17V3Z" fill="#86878B"/>
</svg>
